<svg xmlns="http://www.w3.org/2000/svg" viewBox="0 0 405 35.53"><title>txt_title</title><g id="레이어_2" data-name="레이어 2"><g id="Layer_1" data-name="Layer 1"><path d="M0,1.73H20.77V3.6H12.49v7.56q0,1.48.09,2.86A9.5,9.5,0,0,0,13,16.51a4.21,4.21,0,0,0,1.1,1.76,2.8,2.8,0,0,0,2,.67q3.28,0,3.28-2.48h1.37A5.8,5.8,0,0,1,20.56,18a3.77,3.77,0,0,1-.74,1.4,3.63,3.63,0,0,1-1.42,1,5.89,5.89,0,0,1-2.27.38,7.63,7.63,0,0,1-2.23-.29,5.34,5.34,0,0,1-1.62-.79,5.24,5.24,0,0,1-1.15-1.15,6.34,6.34,0,0,1-.76-1.37,6.88,6.88,0,0,1-.74,1.37A4.93,4.93,0,0,1,8.5,19.73a5.33,5.33,0,0,1-1.64.79,7.67,7.67,0,0,1-2.21.29,5.89,5.89,0,0,1-2.27-.38,3.62,3.62,0,0,1-1.42-1A3.76,3.76,0,0,1,.22,18,5.8,5.8,0,0,1,0,16.45H1.37q0,2.48,3.28,2.48a2.8,2.8,0,0,0,2-.67,4.22,4.22,0,0,0,1.1-1.76A9.52,9.52,0,0,0,8.19,14q.09-1.39.09-2.86V3.6H0ZM4.79,22.79H.61V35.53h21a12.62,12.62,0,0,0,3.74-.47,5.79,5.79,0,0,0,2.34-1.31,4.57,4.57,0,0,0,1.21-2,9.36,9.36,0,0,0,.34-2.59H28.12a3.89,3.89,0,0,1-1.58,3.44,8.94,8.94,0,0,1-5,1.1H4.79ZM17.93,11h6.7V26.21H28.8V1.73H24.62V9.14h-6.7Z"/><path d="M32.9,24.26H54.76l2.93,0A9.38,9.38,0,0,0,59.74,24a2.16,2.16,0,0,0,1.21-.68,2.27,2.27,0,0,0,.4-1.46h1.08a6.13,6.13,0,0,1-.34,2.25,2.49,2.49,0,0,1-1.21,1.3,6.28,6.28,0,0,1-2.34.58q-1.48.13-3.74.13h-5v8.71H45.58V26.14H32.9Zm27.72-3.92H34.7V2.88A4.25,4.25,0,0,0,36.38,4a5.9,5.9,0,0,0,2.5.34V18.47H56.45V3.6H38.84a6.31,6.31,0,0,1-2-.27,3,3,0,0,1-1.22-.76,2.86,2.86,0,0,1-.65-1.15A5.93,5.93,0,0,1,34.7,0h.68a1.36,1.36,0,0,0,1.13,1.44,14.86,14.86,0,0,0,3.4.29h20.7Z"/><path d="M74.2,21a14.58,14.58,0,0,1-3.51-.4,7.72,7.72,0,0,1-2.77-1.26,6,6,0,0,1-1.84-2.21,7.3,7.3,0,0,1-.67-3.26V8.68a7.3,7.3,0,0,1,.67-3.26A6,6,0,0,1,67.91,3.2a7.74,7.74,0,0,1,2.77-1.26,14.63,14.63,0,0,1,3.51-.4,15.31,15.31,0,0,1,3.56.4,8.48,8.48,0,0,1,2.9,1.26,6.23,6.23,0,0,1,2,2.21,6.84,6.84,0,0,1,.72,3.26v5.18a6.84,6.84,0,0,1-.72,3.26,6.23,6.23,0,0,1-2,2.21,8.46,8.46,0,0,1-2.9,1.26A15.26,15.26,0,0,1,74.2,21Zm-8.78,3.67h24V26.5a16.29,16.29,0,0,1-.65,4.82A11.07,11.07,0,0,1,87,34.85l.58.68a13.27,13.27,0,0,0,2.2-1.44,10.87,10.87,0,0,0,1.93-2,10.13,10.13,0,0,0,1.37-2.54,8.83,8.83,0,0,0,.52-3.1V22.79H65.41ZM74.2,3.42q-4.79,0-4.79,4.75v6.16q0,4.75,4.79,4.75A5.59,5.59,0,0,0,78,17.89a4.44,4.44,0,0,0,1.39-3.56V8.17A4.44,4.44,0,0,0,78,4.61,5.59,5.59,0,0,0,74.2,3.42ZM89.42,20.81H93.6V1.73H89.42Z"/><path d="M99.72,28.58a2.52,2.52,0,0,1,2.52-2.52,2.38,2.38,0,0,1,1.58.49,2.61,2.61,0,0,1,.81,1.21,4.5,4.5,0,0,1,.2,1.58,11.24,11.24,0,0,1-.18,1.62,4.73,4.73,0,0,1-1.76,3,7.64,7.64,0,0,1-3.56,1.26v-1a3.54,3.54,0,0,0,1.89-.9,3.19,3.19,0,0,0,.77-2.2,2.34,2.34,0,0,1-1.6-.81A2.43,2.43,0,0,1,99.72,28.58Z"/><path d="M132.8,1.73H137V20.81H119.05V1.73h4.18V9.58h8v1.87h-8v7.49h9.58ZM119.05,22.79H146v3.67a8.83,8.83,0,0,1-.52,3.1,10.13,10.13,0,0,1-1.37,2.54,10.86,10.86,0,0,1-1.93,2,13.29,13.29,0,0,1-2.2,1.44l-.58-.68a11.06,11.06,0,0,0,1.76-3.53,16.29,16.29,0,0,0,.65-4.82V24.66H119.05ZM141.8,1.73H146v8.5h3.17V12.1H146v8.71H141.8Z"/><path d="M150.84,6h20.77V7.85H150.84Zm4.79,16.81h-4.18V35.53h19.69a12.62,12.62,0,0,0,3.74-.47,5.79,5.79,0,0,0,2.34-1.31,4.57,4.57,0,0,0,1.21-2,9.36,9.36,0,0,0,.34-2.59H177.7a3.89,3.89,0,0,1-1.58,3.44,8.94,8.94,0,0,1-5,1.1H155.63Zm14-9.11a3.32,3.32,0,0,0-.67-2.09,5,5,0,0,0-1.82-1.42,10.25,10.25,0,0,0-2.7-.83,19.54,19.54,0,0,0-3.35-.27,21.28,21.28,0,0,0-3.44.25,8.81,8.81,0,0,0-2.61.81,4.41,4.41,0,0,0-1.67,1.44,3.68,3.68,0,0,0-.59,2.11v2.66a4,4,0,0,0,.59,2.25A4.23,4.23,0,0,0,155.07,20a8.7,8.7,0,0,0,2.63.76,24.46,24.46,0,0,0,3.4.22,24,24,0,0,0,3.31-.22,9.83,9.83,0,0,0,2.7-.74,4.67,4.67,0,0,0,1.84-1.42,3.64,3.64,0,0,0,.68-2.27Zm-1.33-9h-8.46a23.75,23.75,0,0,1-2.45-.13,6.75,6.75,0,0,1-2.21-.59,3.89,3.89,0,0,1-1.6-1.39A4.46,4.46,0,0,1,153,0h.68q0,1.19,1.66,2a11,11,0,0,0,4.57.77h8.42Zm-2.66,11.84a2.44,2.44,0,0,1-.38,1.46,2.36,2.36,0,0,1-1,.79,4.37,4.37,0,0,1-1.44.32q-.81.05-1.67.05t-1.57-.05a5,5,0,0,1-1.4-.29,2.09,2.09,0,0,1-1-.77,2.61,2.61,0,0,1-.38-1.51V13.57a2.52,2.52,0,0,1,.38-1.49,2.24,2.24,0,0,1,1-.77,4.29,4.29,0,0,1,1.4-.29q.77,0,1.57,0t1.67.05a4.71,4.71,0,0,1,1.44.31,2.25,2.25,0,0,1,1,.77,2.44,2.44,0,0,1,.38,1.46Zm8.57,9.72h4.18v-13h3.17V11.3h-3.17V1.73H174.2Z"/><path d="M188,32.26h8a8.94,8.94,0,0,0,5-1.1,3.89,3.89,0,0,0,1.58-3.44h1.08a9.32,9.32,0,0,1-.34,2.59,4.57,4.57,0,0,1-1.21,2,5.8,5.8,0,0,1-2.34,1.31,12.63,12.63,0,0,1-3.74.47H183.85V1.73H188ZM206.6,1.73h4.18V17h3.17v1.87h-3.17V34.13H206.6Z"/><path d="M244.19,4.79a16.12,16.12,0,0,1-1,5.94,14.52,14.52,0,0,1-2.64,4.39,14.54,14.54,0,0,1-3.71,3,19.74,19.74,0,0,1-4.16,1.78l-.58-.54a24.14,24.14,0,0,0,3.42-2.27A10.7,10.7,0,0,0,238,14.27a13.23,13.23,0,0,0,1.51-3.92A25.41,25.41,0,0,0,240,4.79V3.6h-6.08a8.94,8.94,0,0,0-5,1.1,3.89,3.89,0,0,0-1.58,3.44h-1.08a9.4,9.4,0,0,1,.34-2.59,4.57,4.57,0,0,1,1.21-2,5.78,5.78,0,0,1,2.34-1.31,12.63,12.63,0,0,1,3.74-.47h10.29ZM230.43,29.16v4.5H249a9.78,9.78,0,0,0,1.8-.16A6.07,6.07,0,0,0,252.3,33a2.92,2.92,0,0,0,1.06-.85,2,2,0,0,0,.39-1.24h1.08a6.73,6.73,0,0,1-.23,1.78,3.26,3.26,0,0,1-.88,1.48,4.44,4.44,0,0,1-1.78,1,9.93,9.93,0,0,1-2.94.36H226.26V27.29h24v-4h-24V21.46h28.19v7.7Zm14.94-22.1h4.89V1.73h4.18v18h-4.18v-5.4h-4.89V12.46h4.89V8.93h-4.89Z"/><path d="M260.71,12.49a4.16,4.16,0,0,1,.4-2,2.91,2.91,0,0,1,1-1.13,4.18,4.18,0,0,1,1.46-.54,9.38,9.38,0,0,1,1.64-.14h16.13a9.18,9.18,0,0,1,1.6.14,4.18,4.18,0,0,1,1.46.54,3.06,3.06,0,0,1,1.06,1.13,4,4,0,0,1,.41,2,4,4,0,0,1-.41,2,3.19,3.19,0,0,1-1.06,1.15,3.74,3.74,0,0,1-1.46.54,10.37,10.37,0,0,1-1.6.13h-6V18.5h5l2.93,0a9.41,9.41,0,0,0,2.05-.22,2.16,2.16,0,0,0,1.21-.68,2.27,2.27,0,0,0,.4-1.46h1.08a6.15,6.15,0,0,1-.34,2.25,2.49,2.49,0,0,1-1.21,1.3,6.27,6.27,0,0,1-2.34.58q-1.48.13-3.74.13H258.55V18.5h12.67V16.27h-6a10.59,10.59,0,0,1-1.64-.13,3.74,3.74,0,0,1-1.46-.54,3,3,0,0,1-1-1.15A4.16,4.16,0,0,1,260.71,12.49Zm-1.44-7h28V7.38h-28Zm5.26,28.15H279a8.94,8.94,0,0,0,5-1.1,3.89,3.89,0,0,0,1.58-3.44h1.08a9.39,9.39,0,0,1-.34,2.59,4.57,4.57,0,0,1-1.21,2,5.78,5.78,0,0,1-2.34,1.31,12.62,12.62,0,0,1-3.74.47H260.35V22.79h4.18ZM283.28,4.28H269.35q-1.22,0-2.45-.07a7,7,0,0,1-2.21-.47,3.53,3.53,0,0,1-1.6-1.26A4.19,4.19,0,0,1,262.47,0h.68q0,1.19,1.66,1.78a14,14,0,0,0,4.57.59h13.89Zm-1.55,8.21A2.27,2.27,0,0,0,281.3,11a1.9,1.9,0,0,0-1.48-.49h-13a1.9,1.9,0,0,0-1.47.49,2.26,2.26,0,0,0-.43,1.53,2.25,2.25,0,0,0,.43,1.53,1.89,1.89,0,0,0,1.47.49h13A1.9,1.9,0,0,0,281.3,14,2.27,2.27,0,0,0,281.73,12.49Z"/><path d="M290.44,6h20.77V7.85H290.44Zm23.36,15.48v12.2H295.23V28.37h17V26.5h-17v-5h-4.18V35.53H318V21.46Zm-4.57-7.78a3.31,3.31,0,0,0-.67-2.09,5,5,0,0,0-1.82-1.42,10.27,10.27,0,0,0-2.7-.83,19.54,19.54,0,0,0-3.35-.27,21.27,21.27,0,0,0-3.44.25,8.77,8.77,0,0,0-2.61.81A4.41,4.41,0,0,0,293,11.57a3.69,3.69,0,0,0-.59,2.11v1.58a4,4,0,0,0,.59,2.25,4.24,4.24,0,0,0,1.69,1.42,8.69,8.69,0,0,0,2.63.76,24.45,24.45,0,0,0,3.4.22,24,24,0,0,0,3.31-.22,9.82,9.82,0,0,0,2.7-.74,4.67,4.67,0,0,0,1.84-1.42,3.63,3.63,0,0,0,.68-2.27Zm-1.33-9h-8.46A23.71,23.71,0,0,1,297,4.52a6.75,6.75,0,0,1-2.21-.59,3.89,3.89,0,0,1-1.6-1.39,4.46,4.46,0,0,1-.61-2.5h.69q0,1.19,1.66,2a11,11,0,0,0,4.57.77h8.43Zm-2.66,10.76a2.45,2.45,0,0,1-.38,1.46,2.37,2.37,0,0,1-1,.79,4.39,4.39,0,0,1-1.44.32q-.81.05-1.67.05T299.18,18a5,5,0,0,1-1.4-.29,2.09,2.09,0,0,1-1-.77,2.61,2.61,0,0,1-.38-1.51V13.57a2.52,2.52,0,0,1,.38-1.49,2.24,2.24,0,0,1,1-.77,4.29,4.29,0,0,1,1.4-.29q.77,0,1.57,0t1.67.05a4.72,4.72,0,0,1,1.44.31,2.25,2.25,0,0,1,1,.77,2.45,2.45,0,0,1,.38,1.46Zm8.57,4.32H318V12.1h3.17V10.22H318V1.73h-4.18Z"/><path d="M327.63,32.26h8a8.94,8.94,0,0,0,5-1.1,3.89,3.89,0,0,0,1.58-3.44h1.08a9.32,9.32,0,0,1-.34,2.59,4.57,4.57,0,0,1-1.21,2,5.8,5.8,0,0,1-2.34,1.31,12.63,12.63,0,0,1-3.74.47H323.46V1.73h4.18ZM347.47,1.73h4.18v32.4h-4.18Z"/><path d="M373.78,3.6H360V32.26h8a8.94,8.94,0,0,0,5-1.1,3.9,3.9,0,0,0,1.58-3.44h1.08a9.39,9.39,0,0,1-.34,2.59,4.57,4.57,0,0,1-1.21,2,5.79,5.79,0,0,1-2.34,1.31,12.63,12.63,0,0,1-3.74.47H355.85V1.73h17.93Zm4.82-1.87h4.18V17H386v1.87h-3.17V34.13h-4.18Z"/><path d="M400,33a2.52,2.52,0,1,1,.74,1.78A2.43,2.43,0,0,1,400,33Zm.4-31.28h4.18V27h-4.18Z"/></g></g></svg>