<svg xmlns="http://www.w3.org/2000/svg" viewBox="0 0 126.97 34.42"><title>txt_location</title><g id="레이어_2" data-name="레이어 2"><g id="Layer_1" data-name="Layer 1"><path d="M0,6.23A9.12,9.12,0,0,1,.38,3.44,4.29,4.29,0,0,1,1.6,1.51,5.44,5.44,0,0,1,3.8.38,12.21,12.21,0,0,1,7.06,0q3.82,0,5.44,1.51a6.17,6.17,0,0,1,1.62,4.72V10h2.27V.18h5.18V32.94H16.38V20.88H14.11v6a6.17,6.17,0,0,1-1.62,4.72q-1.62,1.51-5.44,1.51a12.21,12.21,0,0,1-3.26-.38,5.44,5.44,0,0,1-2.2-1.13A4.29,4.29,0,0,1,.38,29.68,9.12,9.12,0,0,1,0,26.89Zm9.14-.14a5.4,5.4,0,0,0-.49-2.81,1.83,1.83,0,0,0-1.6-.68,2.87,2.87,0,0,0-1,.14,1.28,1.28,0,0,0-.65.54,2.82,2.82,0,0,0-.36,1.06A11.38,11.38,0,0,0,5,6.08V27a11.36,11.36,0,0,0,.11,1.75,2.82,2.82,0,0,0,.36,1.06,1.28,1.28,0,0,0,.65.54,2.89,2.89,0,0,0,1,.14,1.83,1.83,0,0,0,1.6-.68A5.4,5.4,0,0,0,9.14,27Zm5,12.2h2.27V12.6H14.11ZM23.4.18h5.18V32.94H23.4Z"/><path d="M45.18,9.79q0,1.4.07,2.72a10.12,10.12,0,0,0,.38,2.34,4,4,0,0,0,.88,1.64,2.07,2.07,0,0,0,1.58.61,3.34,3.34,0,0,0,2.11-.56,2.18,2.18,0,0,0,.7-1.82h2a7.39,7.39,0,0,1-.22,1.8,4.23,4.23,0,0,1-.76,1.57,3.7,3.7,0,0,1-1.48,1.12,5.9,5.9,0,0,1-2.38.41,6.62,6.62,0,0,1-3.65-.9,5.73,5.73,0,0,1-2.11-2.45,5.78,5.78,0,0,1-2.09,2.45,6.53,6.53,0,0,1-3.64.9,6,6,0,0,1-2.41-.41,3.7,3.7,0,0,1-1.48-1.12A4,4,0,0,1,32,16.52a8,8,0,0,1-.2-1.8h2a2.18,2.18,0,0,0,.7,1.82,3.34,3.34,0,0,0,2.11.56,2.07,2.07,0,0,0,1.58-.61,4,4,0,0,0,.88-1.64,10.19,10.19,0,0,0,.38-2.34q.07-1.31.07-2.72V.14h5.65ZM32.4,21.24H60.95v3.82a9.4,9.4,0,0,1-1.82,5.65,11.62,11.62,0,0,1-2,2.09,14.3,14.3,0,0,1-2.43,1.62l-1.08-1.3A8.92,8.92,0,0,0,55,29.63a26.35,26.35,0,0,0,.36-4.54V23.83H32.4ZM55.33.18h5.62v19.4H55.33Z"/><path d="M64.22.18h21.1V2.77H77.58V9.61q0,1.4.07,2.72A10.13,10.13,0,0,0,78,14.67a4,4,0,0,0,.88,1.64,2.07,2.07,0,0,0,1.58.61,3.34,3.34,0,0,0,2.11-.56,2.18,2.18,0,0,0,.7-1.82h2a7.37,7.37,0,0,1-.22,1.8,4.24,4.24,0,0,1-.76,1.57A3.69,3.69,0,0,1,82.87,19a5.89,5.89,0,0,1-2.37.41,6.61,6.61,0,0,1-3.65-.9,5.72,5.72,0,0,1-2.11-2.45,5.78,5.78,0,0,1-2.09,2.45,6.52,6.52,0,0,1-3.64.9A6,6,0,0,1,66.6,19a3.7,3.7,0,0,1-1.48-1.12,4,4,0,0,1-.74-1.57,8,8,0,0,1-.2-1.8h2a2.18,2.18,0,0,0,.7,1.82,3.34,3.34,0,0,0,2.11.56,2.07,2.07,0,0,0,1.58-.61,4,4,0,0,0,.88-1.64,10.18,10.18,0,0,0,.38-2.34q.07-1.31.07-2.72V2.77h-7.7Zm28.4,27.61A7.88,7.88,0,0,1,92,31.14a4.88,4.88,0,0,1-1.64,2,6.16,6.16,0,0,1-2.36,1,15,15,0,0,1-2.77.25H72.32a15,15,0,0,1-2.77-.25,6.17,6.17,0,0,1-2.36-1,4.88,4.88,0,0,1-1.64-2,7.87,7.87,0,0,1-.61-3.35,7.87,7.87,0,0,1,.61-3.35,4.86,4.86,0,0,1,1.64-2,6.15,6.15,0,0,1,2.36-1,15,15,0,0,1,2.77-.25H85.25a15,15,0,0,1,2.77.25,6.15,6.15,0,0,1,2.36,1,4.87,4.87,0,0,1,1.64,2A7.87,7.87,0,0,1,92.63,27.79Zm-5.62,0a5,5,0,0,0-.7-3.13,2.48,2.48,0,0,0-2-.83H73.26a2.48,2.48,0,0,0-2,.83,5,5,0,0,0-.7,3.13,8.62,8.62,0,0,0,.18,1.93,3.2,3.2,0,0,0,.52,1.22,1.81,1.81,0,0,0,.85.63,3.42,3.42,0,0,0,1.15.18H84.31a3.42,3.42,0,0,0,1.15-.18,1.82,1.82,0,0,0,.85-.63,3.25,3.25,0,0,0,.52-1.22A8.74,8.74,0,0,0,87,27.79ZM86.47.18h5.62V8.53h3.17v2.59H92.09V20H86.47Z"/><path d="M97.09,30.35h12.13V24.84h5.62v5.51h4.32a7.92,7.92,0,0,0,4.55-1A3.86,3.86,0,0,0,125.1,26H127a11.62,11.62,0,0,1-.32,2.86,4.89,4.89,0,0,1-1.19,2.2,5.51,5.51,0,0,1-2.38,1.4,13,13,0,0,1-3.89.49H97.09Zm17.78-15.23a6.59,6.59,0,0,0,1.26,4.3A4.23,4.23,0,0,0,119.59,21a6.55,6.55,0,0,0,2.83-.54,1.85,1.85,0,0,0,1.13-1.8h2a4.63,4.63,0,0,1-.36,1.8,4.42,4.42,0,0,1-1.1,1.55,5.49,5.49,0,0,1-1.85,1.1,7.66,7.66,0,0,1-2.66.41,10.86,10.86,0,0,1-2.7-.31,9,9,0,0,1-2.11-.81,8.53,8.53,0,0,1-1.6-1.12A6.68,6.68,0,0,1,112.07,20a6.93,6.93,0,0,1-1.1,1.26,8,8,0,0,1-1.58,1.12,9,9,0,0,1-2.11.81,10.86,10.86,0,0,1-2.7.31,7.66,7.66,0,0,1-2.66-.41,5.48,5.48,0,0,1-1.85-1.1A4.41,4.41,0,0,1,99,20.41a4.63,4.63,0,0,1-.36-1.8h2a1.85,1.85,0,0,0,1.13,1.8,6.56,6.56,0,0,0,2.83.54A4.23,4.23,0,0,0,108,19.42a6.59,6.59,0,0,0,1.26-4.3V.18h5.58Z"/></g></g></svg>