<svg xmlns="http://www.w3.org/2000/svg" viewBox="0 0 127.76 35.68"><title>txt_trailer</title><g id="레이어_2" data-name="레이어 2"><g id="Layer_1" data-name="Layer 1"><path d="M0,31.68H12.13V26h5.62v5.72h4.32a7.92,7.92,0,0,0,4.55-1A3.86,3.86,0,0,0,28,27.32h1.87a11.65,11.65,0,0,1-.32,2.86,4.9,4.9,0,0,1-1.19,2.2A5.51,5.51,0,0,1,26,33.79a13,13,0,0,1-3.89.49H0Zm1.8-22H12.2v6.77a6.59,6.59,0,0,1-1.26,4.3,4.24,4.24,0,0,1-3.46,1.53,6.55,6.55,0,0,1-2.83-.54,1.85,1.85,0,0,1-1.13-1.8h-2a4.63,4.63,0,0,0,.36,1.8A4.4,4.4,0,0,0,3,23.29a5.48,5.48,0,0,0,1.85,1.1,7.66,7.66,0,0,0,2.66.41,10.85,10.85,0,0,0,2.7-.31,9,9,0,0,0,2.11-.81,8.07,8.07,0,0,0,1.58-1.12A7,7,0,0,0,15,21.31a6.67,6.67,0,0,0,1.12,1.26,8.55,8.55,0,0,0,1.6,1.12,9,9,0,0,0,2.11.81,10.85,10.85,0,0,0,2.7.31,7.66,7.66,0,0,0,2.66-.41A5.49,5.49,0,0,0,27,23.29a4.41,4.41,0,0,0,1.1-1.55,4.64,4.64,0,0,0,.36-1.8h-2a1.85,1.85,0,0,1-1.13,1.8,6.55,6.55,0,0,1-2.83.54A4.23,4.23,0,0,1,19,20.75a6.58,6.58,0,0,1-1.26-4.3V9.68H28V7.09H1.8ZM24.37,5H10.8Q7.31,5,5.9,3.78A4.82,4.82,0,0,1,4.5,0H5.69q0,1.15,1.71,1.84a12.23,12.23,0,0,0,4.48.68H24.37Z"/><path d="M46.62,4.1H37.76V31.68h2a9.32,9.32,0,0,0,4.63-.92,3.46,3.46,0,0,0,1.57-3.26h1.66a10.87,10.87,0,0,1-.34,2.84A4.6,4.6,0,0,1,46,32.47a5.82,5.82,0,0,1-2.39,1.33,13.3,13.3,0,0,1-3.85.47H32.51V1.51H46.62Zm2.27-2.59h5.18V16.6h1.84V1.51h5.18V34.27H55.91V19.19H54.07V34.27H48.89Z"/><path d="M73.94,1.33a15.47,15.47,0,0,1,3.6.4A8.11,8.11,0,0,1,80.41,3,6,6,0,0,1,82.3,5.24,7.65,7.65,0,0,1,83,8.64v5A7.65,7.65,0,0,1,82.3,17a6,6,0,0,1-1.89,2.25,8.09,8.09,0,0,1-2.86,1.26,16.58,16.58,0,0,1-7.2,0,8.07,8.07,0,0,1-2.86-1.26A6,6,0,0,1,65.59,17a7.63,7.63,0,0,1-.68-3.4v-5a7.64,7.64,0,0,1,.68-3.4A6,6,0,0,1,67.48,3a8.08,8.08,0,0,1,2.86-1.26A15.47,15.47,0,0,1,73.94,1.33ZM94.72,29.12a7.89,7.89,0,0,1-.61,3.35,4.89,4.89,0,0,1-1.64,2,6.17,6.17,0,0,1-2.36,1,15,15,0,0,1-2.77.25H73.15a15,15,0,0,1-2.77-.25,6.16,6.16,0,0,1-2.36-1,4.88,4.88,0,0,1-1.64-2,7.87,7.87,0,0,1-.61-3.35,7.86,7.86,0,0,1,.61-3.35,4.86,4.86,0,0,1,1.64-2,6.14,6.14,0,0,1,2.36-1,15,15,0,0,1,2.77-.25H87.34a15,15,0,0,1,2.77.25,6.15,6.15,0,0,1,2.36,1,4.87,4.87,0,0,1,1.64,2A7.89,7.89,0,0,1,94.72,29.12ZM73.94,3.92a3.34,3.34,0,0,0-2.83,1,5.3,5.3,0,0,0-.77,3.19v6a5.29,5.29,0,0,0,.77,3.19,3.34,3.34,0,0,0,2.83,1,3.34,3.34,0,0,0,2.83-1,5.3,5.3,0,0,0,.77-3.19v-6A5.3,5.3,0,0,0,76.77,5,3.35,3.35,0,0,0,73.94,3.92ZM89.1,29.12A5,5,0,0,0,88.4,26a2.47,2.47,0,0,0-2-.83H74.09a2.48,2.48,0,0,0-2,.83,5,5,0,0,0-.7,3.13,8.74,8.74,0,0,0,.18,1.93,3.25,3.25,0,0,0,.52,1.22,1.81,1.81,0,0,0,.85.63,3.41,3.41,0,0,0,1.15.18H86.4a3.41,3.41,0,0,0,1.15-.18,1.82,1.82,0,0,0,.85-.63,3.22,3.22,0,0,0,.52-1.22A8.67,8.67,0,0,0,89.1,29.12ZM84.2,12.46h3.64V9.65H84.2V7.06h3.64V1.51h5.62v19.8H87.84V15H84.2Z"/><path d="M109.91,11.09q0,1.4.07,2.72a10.14,10.14,0,0,0,.38,2.34,4,4,0,0,0,.88,1.64,2.07,2.07,0,0,0,1.58.61,3,3,0,0,0,2-.56,2.36,2.36,0,0,0,.61-1.82h2a8.87,8.87,0,0,1-.18,1.8,4.1,4.1,0,0,1-.68,1.57,3.45,3.45,0,0,1-1.42,1.12,5.77,5.77,0,0,1-2.36.41,6.62,6.62,0,0,1-3.65-.9,5.73,5.73,0,0,1-2.11-2.45A5.78,5.78,0,0,1,105,20a6.53,6.53,0,0,1-3.64.9A5.73,5.73,0,0,1,99,20.5a3.46,3.46,0,0,1-1.4-1.12,4.07,4.07,0,0,1-.68-1.57A8.73,8.73,0,0,1,96.7,16h2a2.36,2.36,0,0,0,.61,1.82,3,3,0,0,0,2,.56,2.07,2.07,0,0,0,1.58-.61,4,4,0,0,0,.88-1.64,10.19,10.19,0,0,0,.38-2.34q.07-1.31.07-2.72V1.51h5.65Zm15.23,18a7.89,7.89,0,0,1-.61,3.35,4.89,4.89,0,0,1-1.64,2,6.17,6.17,0,0,1-2.36,1,15,15,0,0,1-2.77.25H104.83a15,15,0,0,1-2.77-.25,6.16,6.16,0,0,1-2.36-1,4.89,4.89,0,0,1-1.64-2,7.88,7.88,0,0,1-.61-3.35,7.87,7.87,0,0,1,.61-3.35,4.87,4.87,0,0,1,1.64-2,6.15,6.15,0,0,1,2.36-1,15,15,0,0,1,2.77-.25h12.92a15,15,0,0,1,2.77.25,6.15,6.15,0,0,1,2.36,1,4.87,4.87,0,0,1,1.64,2A7.89,7.89,0,0,1,125.14,29.12Zm-5.62,0a5,5,0,0,0-.7-3.13,2.47,2.47,0,0,0-2-.83H105.77a2.47,2.47,0,0,0-2,.83,5,5,0,0,0-.7,3.13,8.67,8.67,0,0,0,.18,1.93,3.22,3.22,0,0,0,.52,1.22,1.81,1.81,0,0,0,.85.63,3.41,3.41,0,0,0,1.15.18h11.05A3.41,3.41,0,0,0,118,32.9a1.82,1.82,0,0,0,.85-.63,3.22,3.22,0,0,0,.52-1.22A8.67,8.67,0,0,0,119.52,29.12ZM119,1.51h5.62V9.86h3.17v2.59H124.6v8.86H119Z"/></g></g></svg>