<svg xmlns="http://www.w3.org/2000/svg" viewBox="0 0 126.94 34.16"><title>txt_jeju_photo</title><g id="레이어_2" data-name="레이어 2"><g id="Layer_1" data-name="Layer 1"><path d="M.18,0H16.24V2.63H10.87V25.09a13.38,13.38,0,0,0,.45,4.09q.45,1.28,1.39,1.28a1.57,1.57,0,0,0,1.35-.56,3.1,3.1,0,0,0,.41-1.82h1.84a10.7,10.7,0,0,1-.14,1.78,3.81,3.81,0,0,1-.58,1.49,3.09,3.09,0,0,1-1.22,1,4.59,4.59,0,0,1-2.05.4,3.71,3.71,0,0,1-2.68-.92,6.3,6.3,0,0,1-1.49-2.32,6,6,0,0,1-1.46,2.32A3.71,3.71,0,0,1,4,32.8a4.58,4.58,0,0,1-2.05-.4,3.08,3.08,0,0,1-1.22-1,3.79,3.79,0,0,1-.58-1.49A10.6,10.6,0,0,1,0,28.08H1.84a3.1,3.1,0,0,0,.41,1.82,1.57,1.57,0,0,0,1.35.56q.94,0,1.39-1.24a13,13,0,0,0,.45-4V2.63H.18ZM13.07,13.72h4.1V0h5.18V32.8H17.17V16.31h-4.1ZM24.19,0h5.18V32.8H24.19Z"/><path d="M33.08,22.39H58.19a7.27,7.27,0,0,0,1.91-.2,1.51,1.51,0,0,0,1-.68,3,3,0,0,0,.27-1.42H63a9.94,9.94,0,0,1-.25,2.47A2.51,2.51,0,0,1,61.65,24a5.53,5.53,0,0,1-2.34.74,33.77,33.77,0,0,1-4.12.2H50.83v8.53H45.22V25H33.08ZM34.88,0H61.13V2.63H50.87V11a6.58,6.58,0,0,0,1.26,4.3,4.23,4.23,0,0,0,3.46,1.53,6.55,6.55,0,0,0,2.83-.54,1.85,1.85,0,0,0,1.13-1.8h2a4.64,4.64,0,0,1-.36,1.8,4.41,4.41,0,0,1-1.1,1.55A5.52,5.52,0,0,1,58.25,19a7.66,7.66,0,0,1-2.66.41,10.85,10.85,0,0,1-2.7-.31,9,9,0,0,1-2.11-.81,8.55,8.55,0,0,1-1.6-1.12,6.7,6.7,0,0,1-1.12-1.26A7,7,0,0,1,47,17.14a8.07,8.07,0,0,1-1.58,1.12,9,9,0,0,1-2.11.81,10.85,10.85,0,0,1-2.7.31A7.66,7.66,0,0,1,37.91,19a5.51,5.51,0,0,1-1.85-1.1A4.4,4.4,0,0,1,35,16.31a4.63,4.63,0,0,1-.36-1.8h2a1.85,1.85,0,0,0,1.13,1.8,6.55,6.55,0,0,0,2.83.54A4.24,4.24,0,0,0,44,15.32,6.59,6.59,0,0,0,45.29,11V2.63H34.88Z"/><path d="M78.19,22.75q0,1.4.07,2.72a10.12,10.12,0,0,0,.38,2.34,4,4,0,0,0,.88,1.64,2.07,2.07,0,0,0,1.58.61,3,3,0,0,0,2-.56,2.36,2.36,0,0,0,.61-1.82h2a8.79,8.79,0,0,1-.18,1.8A4.08,4.08,0,0,1,84.89,31a3.45,3.45,0,0,1-1.42,1.12,5.78,5.78,0,0,1-2.36.41,6.62,6.62,0,0,1-3.65-.9,5.69,5.69,0,0,1-2.11-2.48,5.75,5.75,0,0,1-2.09,2.48,6.53,6.53,0,0,1-3.64.9,5.76,5.76,0,0,1-2.38-.41A3.47,3.47,0,0,1,65.84,31a4.06,4.06,0,0,1-.68-1.57,8.76,8.76,0,0,1-.18-1.8h2a2.36,2.36,0,0,0,.61,1.82,3,3,0,0,0,2,.56,2.07,2.07,0,0,0,1.58-.61,4,4,0,0,0,.88-1.64,10.18,10.18,0,0,0,.38-2.34q.07-1.31.07-2.72V0h5.65ZM87.26,0h5.62V15.12H96v2.59H92.88V32.8H87.26Z"/><path d="M97.42,0h21.1V2.63h-7.74V9.47q0,1.4.07,2.72a10.12,10.12,0,0,0,.38,2.34,4,4,0,0,0,.88,1.64,2.07,2.07,0,0,0,1.58.61,3.34,3.34,0,0,0,2.11-.56,2.19,2.19,0,0,0,.7-1.82h2a7.42,7.42,0,0,1-.22,1.8,4.24,4.24,0,0,1-.76,1.57,3.71,3.71,0,0,1-1.48,1.12,5.9,5.9,0,0,1-2.38.41,6.61,6.61,0,0,1-3.65-.9,5.72,5.72,0,0,1-2.11-2.45,5.78,5.78,0,0,1-2.09,2.45,6.52,6.52,0,0,1-3.63.9,6,6,0,0,1-2.41-.41,3.69,3.69,0,0,1-1.48-1.12,4,4,0,0,1-.74-1.57,8,8,0,0,1-.2-1.8h2a2.19,2.19,0,0,0,.7,1.82,3.34,3.34,0,0,0,2.11.56,2.07,2.07,0,0,0,1.58-.61,4,4,0,0,0,.88-1.64,10.17,10.17,0,0,0,.38-2.34q.07-1.31.07-2.72V2.63H97.42Zm6.23,31.54h15.48a9,9,0,0,0,4.5-.9,3.45,3.45,0,0,0,1.51-3.24h1.8a12.54,12.54,0,0,1-.25,2.52,4.63,4.63,0,0,1-1.08,2.16,5.68,5.68,0,0,1-2.36,1.49,12.22,12.22,0,0,1-4.09.56H98V21.1h5.62ZM120.92,0h5.62V24.88h-5.62Z"/></g></g></svg>