<svg xmlns="http://www.w3.org/2000/svg" viewBox="0 0 230.01 29.61"><title>txt_about_us</title><g id="레이어_2" data-name="레이어 2"><g id="Layer_1" data-name="Layer 1"><path d="M0,1.44H13.41V3H8.46V22.2A15.11,15.11,0,0,0,8.57,24a5.85,5.85,0,0,0,.36,1.48,2.6,2.6,0,0,0,.66,1,1.46,1.46,0,0,0,1,.36,2.34,2.34,0,0,0,.65-.09,1.23,1.23,0,0,0,.54-.31,1.59,1.59,0,0,0,.36-.63,3.33,3.33,0,0,0,.13-1h1.14a8.13,8.13,0,0,1-.1,1.3,3.13,3.13,0,0,1-.44,1.17,2.35,2.35,0,0,1-.94.84,3.61,3.61,0,0,1-1.64.31,3.46,3.46,0,0,1-1.35-.24,3.4,3.4,0,0,1-1-.64,3.92,3.92,0,0,1-.73-.93,6.73,6.73,0,0,1-.51-1.12,6.81,6.81,0,0,1-.51,1.13,4.15,4.15,0,0,1-.72.93,3.17,3.17,0,0,1-1,.64,3.49,3.49,0,0,1-1.33.24,3.6,3.6,0,0,1-1.63-.31,2.35,2.35,0,0,1-.95-.84A3.12,3.12,0,0,1,.1,26.11a8.08,8.08,0,0,1-.1-1.3H1.14a3.32,3.32,0,0,0,.14,1,1.59,1.59,0,0,0,.36.63,1.23,1.23,0,0,0,.54.31,2.33,2.33,0,0,0,.65.09,1.46,1.46,0,0,0,1-.36,2.61,2.61,0,0,0,.66-1A5.91,5.91,0,0,0,4.85,24,15.21,15.21,0,0,0,5,22.2V3H0ZM10.74,14.52h4V28.44h3.48v-27H14.7V13h-4Zm9.78,13.92H24v-27H20.52Z"/><path d="M27.42,20.22H48.08A7.82,7.82,0,0,0,49.79,20a1.8,1.8,0,0,0,1-.57,1.89,1.89,0,0,0,.33-1.22H52a5.1,5.1,0,0,1-.28,1.88,2.07,2.07,0,0,1-1,1.08,5.23,5.23,0,0,1-1.95.48q-1.23.11-3.12.1h-4.2V29H38V21.78H27.42Zm1.5-18.78h21.6V3h-9v7.11a7.6,7.6,0,0,0,.31,2.25,5.28,5.28,0,0,0,.9,1.75,4.11,4.11,0,0,0,3.31,1.58,7.37,7.37,0,0,0,1.32-.12,4.32,4.32,0,0,0,1.17-.37,2.44,2.44,0,0,0,.82-.65,1.43,1.43,0,0,0,.32-.93h1.14a3,3,0,0,1-.31,1.3,3.63,3.63,0,0,1-.93,1.17,4.71,4.71,0,0,1-1.5.84,6,6,0,0,1-2,.31A8.4,8.4,0,0,1,44,17a7.59,7.59,0,0,1-1.8-.71,7.3,7.3,0,0,1-1.42-1,5.08,5.08,0,0,1-1-1.2,5.28,5.28,0,0,1-1,1.2,6.92,6.92,0,0,1-1.41,1,7.59,7.59,0,0,1-1.8.71,8.4,8.4,0,0,1-2.1.25,6,6,0,0,1-2-.31,4.7,4.7,0,0,1-1.5-.84,3.63,3.63,0,0,1-.93-1.17,3,3,0,0,1-.31-1.3h1.14a1.43,1.43,0,0,0,.31.93,2.43,2.43,0,0,0,.82.65,4.32,4.32,0,0,0,1.16.38,7.27,7.27,0,0,0,1.33.12,4.11,4.11,0,0,0,3.31-1.58,5.28,5.28,0,0,0,.9-1.75A7.6,7.6,0,0,0,38,10.11V3H28.92Z"/><path d="M60.33,28.59q-3.18,0-4.5-1.25a5,5,0,0,1-1.32-3.79V6.33a5,5,0,0,1,1.32-3.79q1.32-1.25,4.5-1.25t4.5,1.25a5,5,0,0,1,1.32,3.79v7.83H68.7V1.44h3.48v27H68.7V15.72H66.15v7.83a5,5,0,0,1-1.32,3.79Q63.51,28.59,60.33,28.59Zm0-25.74a2.59,2.59,0,0,0-2,.71,4,4,0,0,0-.66,2.65V23.64a4,4,0,0,0,.66,2.65,3.11,3.11,0,0,0,3.95,0A3.89,3.89,0,0,0,63,23.64V6.21a3.89,3.89,0,0,0-.67-2.65A2.6,2.6,0,0,0,60.33,2.85ZM74.52,1.44H78v27H74.52Z"/><path d="M84.87,28.26A4.91,4.91,0,0,1,83,27.94a3,3,0,0,1-1.18-.84,3.14,3.14,0,0,1-.62-1.17A4.83,4.83,0,0,1,81,24.63h1.14q0,2.07,2.73,2.07a2.34,2.34,0,0,0,1.65-.55,3.52,3.52,0,0,0,.92-1.47,8,8,0,0,0,.39-2.07q.07-1.15.08-2.39V1.41h3.51V20.22q0,1.23.08,2.39a7.91,7.91,0,0,0,.39,2.07,3.53,3.53,0,0,0,.92,1.47,2.34,2.34,0,0,0,1.65.55q2.73,0,2.73-2.07h1.14a4.85,4.85,0,0,1-.18,1.31,3.15,3.15,0,0,1-.62,1.17,3,3,0,0,1-1.19.84,4.91,4.91,0,0,1-1.89.31A6.38,6.38,0,0,1,92.58,28a4.48,4.48,0,0,1-1.35-.66,4.23,4.23,0,0,1-1-1,5.69,5.69,0,0,1-.63-1.15A6.16,6.16,0,0,1,89,26.38a4,4,0,0,1-.95,1,4.45,4.45,0,0,1-1.36.66A6.42,6.42,0,0,1,84.87,28.26ZM95.94,14.52h5.58V28.44H105v-27h-3.48V13H95.94Z"/><path d="M131.79,17.34H116.85V2.4a3.55,3.55,0,0,0,1.39,1,4.93,4.93,0,0,0,2.08.29V15.78h8V3h-8a5.27,5.27,0,0,1-1.7-.23,2.45,2.45,0,0,1-1-.63,2.38,2.38,0,0,1-.54-1,4.94,4.94,0,0,1-.2-1.19h.57a1.13,1.13,0,0,0,.94,1.2,12.36,12.36,0,0,0,2.83.24h10.59ZM120.33,28h12.9a7.45,7.45,0,0,0,4.17-.92,3.24,3.24,0,0,0,1.32-2.86h.9a7.81,7.81,0,0,1-.28,2.16,3.81,3.81,0,0,1-1,1.69,4.81,4.81,0,0,1-1.95,1.09,10.52,10.52,0,0,1-3.12.39H116.85V19h3.48ZM135.81,1.44h3.48v8h2.64V11h-2.64V21.84h-3.48Z"/><path d="M147.33,15.78H154a7.44,7.44,0,0,0,4.17-.92A3.24,3.24,0,0,0,159.51,12h.9a7.81,7.81,0,0,1-.28,2.16,3.8,3.8,0,0,1-1,1.69,4.8,4.8,0,0,1-1.95,1.09,10.5,10.5,0,0,1-3.12.39h-10.2V1.44h3.48Zm0,12.27h12.9a7.45,7.45,0,0,0,4.17-.92,3.24,3.24,0,0,0,1.32-2.86h.9a7.81,7.81,0,0,1-.28,2.16,3.81,3.81,0,0,1-1,1.69,4.81,4.81,0,0,1-1.95,1.09,10.52,10.52,0,0,1-3.12.39H143.85V19h3.48ZM162.81,1.44h3.48v8h2.64V11h-2.64V21.84h-3.48Z"/><path d="M186.51,17.49a12.17,12.17,0,0,1-2.93-.33,6.44,6.44,0,0,1-2.31-1.05,5,5,0,0,1-1.53-1.84,6.08,6.08,0,0,1-.55-2.72V7.23a6.08,6.08,0,0,1,.55-2.71,5,5,0,0,1,1.53-1.85,6.44,6.44,0,0,1,2.31-1,12.17,12.17,0,0,1,2.93-.33,12.74,12.74,0,0,1,3,.33,7.07,7.07,0,0,1,2.42,1,5.2,5.2,0,0,1,1.63,1.85,5.7,5.7,0,0,1,.6,2.71v4.32a5.7,5.7,0,0,1-.6,2.72,5.2,5.2,0,0,1-1.63,1.84,7.07,7.07,0,0,1-2.42,1.05A12.74,12.74,0,0,1,186.51,17.49ZM182.67,19h-3.48V29.61h17.46a10.52,10.52,0,0,0,3.12-.39,4.82,4.82,0,0,0,2-1.09,3.81,3.81,0,0,0,1-1.69,7.81,7.81,0,0,0,.29-2.16h-.9a3.24,3.24,0,0,1-1.32,2.86,7.45,7.45,0,0,1-4.17.92h-14Zm3.84-16.14q-4,0-4,4v5.13q0,4,4,4a4.66,4.66,0,0,0,3.13-1,3.7,3.7,0,0,0,1.16-3V6.81a3.7,3.7,0,0,0-1.16-3A4.66,4.66,0,0,0,186.51,2.85Zm12.69,19h3.48V1.44H199.2Z"/><path d="M213.51,17.49a12.17,12.17,0,0,1-2.93-.33,6.44,6.44,0,0,1-2.31-1.05,5,5,0,0,1-1.53-1.84,6.08,6.08,0,0,1-.55-2.72V7.23a6.08,6.08,0,0,1,.55-2.71,5,5,0,0,1,1.53-1.85,6.44,6.44,0,0,1,2.31-1,12.17,12.17,0,0,1,2.93-.33,12.74,12.74,0,0,1,3,.33,7.07,7.07,0,0,1,2.42,1,5.2,5.2,0,0,1,1.63,1.85,5.7,5.7,0,0,1,.6,2.71v4.32a5.7,5.7,0,0,1-.6,2.72,5.2,5.2,0,0,1-1.63,1.84,7.07,7.07,0,0,1-2.42,1.05A12.74,12.74,0,0,1,213.51,17.49ZM209.67,19h-3.48V29.61h17.46a10.52,10.52,0,0,0,3.12-.39,4.82,4.82,0,0,0,2-1.09,3.81,3.81,0,0,0,1-1.69,7.81,7.81,0,0,0,.29-2.16h-.9a3.24,3.24,0,0,1-1.32,2.86,7.45,7.45,0,0,1-4.17.92h-14Zm3.84-16.14q-4,0-4,4v5.13q0,4,4,4a4.66,4.66,0,0,0,3.13-1,3.7,3.7,0,0,0,1.16-3V6.81a3.7,3.7,0,0,0-1.16-3A4.66,4.66,0,0,0,213.51,2.85Zm8.61,10h4.08v9h3.48V1.44H226.2V6.78h-4.08V8.34h4.08v2.94h-4.08Z"/></g></g></svg>