<svg xmlns="http://www.w3.org/2000/svg" viewBox="0 0 126.61 34.34"><title>txt_wedding_photo</title><g id="레이어_2" data-name="레이어 2"><g id="Layer_1" data-name="Layer 1"><path d="M0,19.73H7.92q1.84,0,3.08,0a8.58,8.58,0,0,0,2-.23,1.87,1.87,0,0,0,1-.59,1.86,1.86,0,0,0,.31-1.15h1.44a9,9,0,0,1-.2,2.05,2.54,2.54,0,0,1-.83,1.37,4.15,4.15,0,0,1-1.75.81,15.63,15.63,0,0,1-3,.34V32.94H4.39V22.32H0ZM.47,6.23Q.47,3,2.12,1.49T7.63,0q3.85,0,5.51,1.49T14.8,6.23v4.25q0,3.24-1.66,4.73T7.63,16.7q-3.85,0-5.51-1.49T.47,10.48Zm9.36-.14A9.76,9.76,0,0,0,9.7,4.34a2.82,2.82,0,0,0-.4-1.06,1.36,1.36,0,0,0-.68-.54,3,3,0,0,0-1-.14,3,3,0,0,0-1,.14A1.36,1.36,0,0,0,6,3.28a2.82,2.82,0,0,0-.4,1.06,9.71,9.71,0,0,0-.13,1.75v4.54a9.69,9.69,0,0,0,.13,1.75A2.82,2.82,0,0,0,6,13.43a1.36,1.36,0,0,0,.68.54,3,3,0,0,0,1,.14,3,3,0,0,0,1-.14,1.36,1.36,0,0,0,.68-.54,2.82,2.82,0,0,0,.4-1.06,9.74,9.74,0,0,0,.13-1.75Zm2.52,20.3h4.5V.18H22V32.94H16.85V28.66h-4.5ZM23.87.18h5.18V32.94H23.87Z"/><path d="M51.12,2.77H38.48V17h6.77a9.31,9.31,0,0,0,4.63-.92,3.46,3.46,0,0,0,1.57-3.26H53.1a10.86,10.86,0,0,1-.34,2.84,4.6,4.6,0,0,1-1.22,2.12,5.81,5.81,0,0,1-2.39,1.33,13.27,13.27,0,0,1-3.85.47H32.87V.18H51.12Zm11.56,25a7.88,7.88,0,0,1-.61,3.35,4.88,4.88,0,0,1-1.64,2,6.16,6.16,0,0,1-2.36,1,15,15,0,0,1-2.77.25H41.11a15,15,0,0,1-2.77-.25,6.16,6.16,0,0,1-2.36-1,4.88,4.88,0,0,1-1.64-2,7.87,7.87,0,0,1-.61-3.35,7.86,7.86,0,0,1,.61-3.35,4.86,4.86,0,0,1,1.64-2,6.15,6.15,0,0,1,2.36-1,15,15,0,0,1,2.77-.25H55.3a15,15,0,0,1,2.77.25,6.15,6.15,0,0,1,2.36,1,4.87,4.87,0,0,1,1.64,2A7.87,7.87,0,0,1,62.68,27.79Zm-5.62,0a5,5,0,0,0-.7-3.13,2.48,2.48,0,0,0-2-.83H42a2.48,2.48,0,0,0-2,.83,5,5,0,0,0-.7,3.13,8.68,8.68,0,0,0,.18,1.93A3.22,3.22,0,0,0,40,30.94a1.81,1.81,0,0,0,.85.63,3.41,3.41,0,0,0,1.15.18H54.36a3.42,3.42,0,0,0,1.15-.18,1.82,1.82,0,0,0,.85-.63,3.22,3.22,0,0,0,.52-1.22A8.68,8.68,0,0,0,57.06,27.79ZM55.8.18h5.62V20H55.8Z"/><path d="M77.87,22.9q0,1.4.07,2.72A10.12,10.12,0,0,0,78.32,28a4,4,0,0,0,.88,1.64,2.07,2.07,0,0,0,1.58.61,3,3,0,0,0,2-.56,2.36,2.36,0,0,0,.61-1.82h2a8.79,8.79,0,0,1-.18,1.8,4.08,4.08,0,0,1-.68,1.57,3.45,3.45,0,0,1-1.42,1.12,5.78,5.78,0,0,1-2.36.41,6.62,6.62,0,0,1-3.65-.9A5.69,5.69,0,0,1,75,29.34a5.75,5.75,0,0,1-2.09,2.48,6.53,6.53,0,0,1-3.64.9,5.76,5.76,0,0,1-2.38-.41,3.47,3.47,0,0,1-1.4-1.12,4.07,4.07,0,0,1-.68-1.57,8.79,8.79,0,0,1-.18-1.8h2a2.36,2.36,0,0,0,.61,1.82,3,3,0,0,0,2,.56,2.07,2.07,0,0,0,1.58-.61A4,4,0,0,0,71.77,28a10.18,10.18,0,0,0,.38-2.34q.07-1.31.07-2.72V.14h5.65ZM86.94.18h5.62V15.26h3.17v2.59H92.56V32.94H86.94Z"/><path d="M97.09.18h21.1V2.77h-7.74V9.61q0,1.4.07,2.72a10.12,10.12,0,0,0,.38,2.34,4,4,0,0,0,.88,1.64,2.07,2.07,0,0,0,1.58.61,3.34,3.34,0,0,0,2.11-.56,2.19,2.19,0,0,0,.7-1.82h2a7.42,7.42,0,0,1-.22,1.8,4.24,4.24,0,0,1-.76,1.57A3.71,3.71,0,0,1,115.74,19a5.9,5.9,0,0,1-2.38.41,6.61,6.61,0,0,1-3.65-.9,5.72,5.72,0,0,1-2.11-2.45,5.78,5.78,0,0,1-2.09,2.45,6.52,6.52,0,0,1-3.63.9A6,6,0,0,1,99.47,19,3.69,3.69,0,0,1,98,17.91a4,4,0,0,1-.74-1.57,8,8,0,0,1-.2-1.8h2a2.19,2.19,0,0,0,.7,1.82,3.34,3.34,0,0,0,2.11.56,2.07,2.07,0,0,0,1.58-.61,4,4,0,0,0,.88-1.64,10.17,10.17,0,0,0,.38-2.34q.07-1.31.07-2.72V2.77H97.09Zm6.23,31.54H118.8a9,9,0,0,0,4.5-.9,3.45,3.45,0,0,0,1.51-3.24h1.8a12.54,12.54,0,0,1-.25,2.52,4.63,4.63,0,0,1-1.08,2.16,5.68,5.68,0,0,1-2.36,1.49,12.22,12.22,0,0,1-4.09.56H97.7V21.24h5.62ZM120.6.18h5.62V25H120.6Z"/></g></g></svg>