<svg xmlns="http://www.w3.org/2000/svg" viewBox="0 0 316.4 267.48"><defs><style>.cls-1{fill:#fff;}.cls-2{fill:#fafafa;}</style></defs><title>자산 2</title><g id="레이어_2" data-name="레이어 2"><g id="Layer_1" data-name="Layer 1"><path class="cls-1" d="M66.92,45.82a217.82,217.82,0,0,1-2.14-27.88c0-5.39,1-10.32,4.09-10.32,3.44,0,4.18,4,4.18,10.6a145,145,0,0,1-2,24.07c1.67,12.18,3.44,26.12,4.18,38.57,3.72-9.94,8.74-21.28,13.57-32.25a285.26,285.26,0,0,1,5.3-39c.84-4,2.7-9.57,7.06-9.57,3.07,0,4.37,2.51,4.37,6.69,0,8.09-5.48,21.93-12.08,37.27-2.6,39,3,73,17.94,73,6.41,0,9.67-3,12.64-9.76l4.93,1.67c-3.44,8.64-9,12.64-17,12.64-16.08,0-24.82-27.51-23.42-66.27-4.74,10.78-9.57,21.56-13,31a96.2,96.2,0,0,1-.56,16L70.08,102a42.29,42.29,0,0,1,1.58-10.32c-.28-12.83-2-25-3.53-36.71C60.32,83.09,44,103.07,24.82,103.07,10.41,103.07,0,92,0,77.51c0-14,10.13-29.46,25.93-29.46,9.67,0,16.64,6.69,16.64,16.82,0,3.81-2,10.13-4.74,13.38l-4.28-3.07c2.88-3.62,4.93-9,4.93-12.45,0-6.23-3.9-12-11.8-12C12.45,50.75,4.93,63.48,4.93,77c0,13.29,7.16,23.42,20.73,23.42C45.08,100.47,60.13,73.24,66.92,45.82ZM69.24,9.67c-2.23,0-1.39,9.48.37,22.58a112.22,112.22,0,0,0,1.3-16.17C70.91,11.25,70.26,9.67,69.24,9.67Zm32-7.16c-1.58,0-2.51,2.32-3.35,6.78-1.67,9-3,18.22-3.81,27.23,5.2-12.27,9.11-23.14,9.11-29.93C103.17,3.9,102.7,2.51,101.21,2.51Z"/><path class="cls-1" d="M114.88,39.59c-.84,4.65-6,25.65-6,34.76,0,3,.84,4.18,2,4.18,2.32,0,7.53-8.92,9.48-19.61,1.21-7,2.79-13.76,4-19.33h4.83c-2.88,14.22-5.86,27.42-5.86,35,0,2.79.74,3.81,1.77,3.81,2.79,0,6.23-6.78,10.87-18.87.37,0,1.67.46,1.67.93-4.93,12.83-8.09,21.93-14,21.93-3.44,0-4.55-3.9-4.55-9.76,0-.56.09-1.21.09-1.86-2.6,6.78-6.23,11.62-9.85,11.62s-4.93-3.81-4.93-9.57c0-11.25,4.74-29.09,5.58-33.27Z"/><path class="cls-1" d="M144.9,39.59c-3,14.22-5.86,27.42-5.86,35,0,2.79.74,3.81,1.67,3.81,2.88,0,6.32-6.78,10.87-18.87.46,0,1.67.46,1.67.93-4.83,12.83-8.09,21.93-14,21.93-3.35,0-4.74-4-4.74-9.67,0-9.39,3.53-23.7,5.48-33.18Zm-3.62-9.76c0-2,1.3-4.55,3.81-4.55,2,0,2.79,1.49,2.79,3.16,0,2.14-1.49,4.37-3.81,4.37A2.68,2.68,0,0,1,141.27,29.83Z"/><path class="cls-1" d="M148.06,82l.46-3.81c.28-5.67,2-11.8,2.42-14.41,2.79-18.77,6.69-41.54,10.87-50.47,1.49-3.25,3.81-4.93,5.95-4.93,3,0,4.28,1.77,4.28,4.74,0,6.78-6.32,20.26-14.59,39.22l-.56,3C160.79,46,165,39,169.62,39c2.79,0,4,1.86,4,4.55,0,5.86-5.95,16.45-12.45,20.26C169.53,71,171.29,96.1,190.9,96.1c12.83,0,19.42-11.06,19.42-21.19,0-8.64-4.74-16.54-14.22-16.54-6.13,0-10.78,3.9-12.92,11.15l-4.46-1.77a18.44,18.44,0,0,1,17.1-12.18c12.36,0,18.59,9.67,18.59,19.89,0,11.52-7.9,23.7-23.7,23.7-23.42,0-26.4-27.42-32.62-34a11.79,11.79,0,0,1-2.42.37,4.09,4.09,0,0,1-.46-.09c-.09.93-.28,2-.46,2.88L152.8,82ZM169.34,44.8c0-1.21-.46-2-1.49-2-2.6,0-6.32,4.65-10.69,15.15L156,61.81a8.54,8.54,0,0,1,2.6.46C163.58,59.2,169.34,49.07,169.34,44.8Zm-1.39-33c-2.88,0-6,16.27-9,33.18,2.79-6.6,9.48-23.7,9.95-31C168.87,12.45,168.6,11.8,167.95,11.8Z"/><path class="cls-1" d="M169.74,110.69a24.38,24.38,0,0,0,.19-3.53c0-5.2-3.07-8.09-5.95-8.09-14.68,0-21.19,47.77-26.58,100.28h-6.23c4.37-33,7-50.1,7-50.1-5.48.65-9.94.37-16.17.37-6.6,32.34-16.36,51.21-40.06,50.19-14.41-.65-24.82-11.06-24.82-25.56,0-14,10.13-29.46,25.93-29.46,9.67,0,16.64,6.69,16.64,16.82,0,3.81-2,10.13-4.74,13.38l-4.28-3.07c2.88-3.62,4.93-9,4.93-12.45,0-6.23-3.9-12-11.8-12C69.55,147.5,62,160.23,62,173.8c0,13.29,7.9,23,21.47,23.42,18.68.56,27.51-18.77,32.9-47.4a17.79,17.79,0,0,0-8.46,2.51l-1.77-3.81a27.9,27.9,0,0,1,11-2.42c2.42-13.1,4.09-23.61,8-37.64-10.22,5.48-27,5.67-27,16.64,0,5.67,4.18,7.9,10.6,7.9l-.65,4.74c-9.2-.46-14-4.65-14-11.52,0-14.5,24.44-14.78,32.16-21.38l2.6-8.55,4.65,1a18.44,18.44,0,0,1-2.88,8.27c-3.9,14.13-5.58,26.67-8,40.52,8.09.28,11,1.58,15.89.46,6.6-37.92,15.34-50.84,26.3-50.84,6.23,0,10.32,4.28,10.32,12.27a21.88,21.88,0,0,1-.09,2.42Z"/><path class="cls-1" d="M171.69,136h4.18c-2.32,11.43-4.37,22.12-5.48,30.86a31.77,31.77,0,0,0-.37,4.65c0,2.14.37,3.35,1.12,3.35,2.14,0,6-6.51,10.78-19a2.83,2.83,0,0,1,1.67.93c-6.51,15.71-9.85,21.93-13.76,21.93-2.7,0-3.81-3.35-3.81-9.57l.46-4.46c-2.6,7.44-6.23,14-11.25,14-4,0-5.76-4.18-5.76-10.78,0-13,6.78-32.62,15.15-32.62,3.72,0,5.3,3,5.76,7.16Zm-17.57,32c0,3.9.84,6.6,2.79,6.6,5,0,11.62-18.87,11.62-28.07,0-4.46-1.21-7.44-3.72-7.44C159.7,139,154.12,157.63,154.12,167.94Z"/><path class="cls-1" d="M177.26,178.26A90.28,90.28,0,0,1,180.42,164c1.77-10,3.72-21.28,4.55-28.16h5l-2.23,12.92c3.35-7,6.78-13.29,12.36-13.29,3,0,4.74,2.14,4.74,5.95,0,7.81-6.51,22.21-6.51,29.83,0,2.51.93,3.44,2.23,3.44,3.07,0,6.88-8.18,11-18.87a2.83,2.83,0,0,1,1.67.93l-1,2.7c-3.62,9.67-8,19.24-13.57,19.24-3.07,0-5.3-2.32-5.3-6.6,0-8.64,6.6-23.7,6.6-29.65,0-2.23-.65-3.44-2.14-3.44-3.07,0-8.64,8.64-12.08,20.82l-3.44,18.4Z"/><path class="cls-1" d="M206.91,178.26A90.4,90.4,0,0,1,210.07,164c1.77-10,3.72-21.28,4.55-28.16h5l-2.23,12.92c3.35-7,6.78-13.29,12.36-13.29,3,0,4.74,2.14,4.74,5.95,0,7.81-6.51,22.21-6.51,29.83,0,2.51.93,3.44,2.23,3.44,3.07,0,6.88-8.18,11-18.87a2.83,2.83,0,0,1,1.67.93l-1,2.7c-3.62,9.67-8,19.24-13.57,19.24-3.07,0-5.3-2.32-5.3-6.6,0-8.64,6.6-23.7,6.6-29.65,0-2.23-.65-3.44-2.14-3.44-3.07,0-8.64,8.64-12.08,20.82l-3.44,18.4Z"/><path class="cls-1" d="M245.2,178.91c-4,0-5.58-4.65-5.58-11,0-13,6.79-32.62,15.15-32.62,3.72,0,5.3,3,5.76,7.16l1.3-6.51H266c-2.79,13.94-5.3,23.42-5.3,34,0,16.45,8.92,25.75,22.77,25.75,18.22,0,29-15.24,29-31.32,0-13.29-8.18-24.17-23.79-25l.37-4.55c18.68.74,27.32,14.5,27.32,29.37,0,16.26-11.9,34.3-33.18,34.3-17.94,0-26.77-11.71-26.77-29.83,0-1.3.09-2.6.19-4C253.94,172.68,250.31,178.91,245.2,178.91Zm-.93-11c0,3.9.84,6.6,2.79,6.6,5,0,11.62-18.87,11.62-28.07,0-4.46-1.21-7.44-3.72-7.44C249.85,139,244.27,157.63,244.27,167.94Z"/><path class="cls-2" d="M70,241.53a6.06,6.06,0,0,0,.35,2l-3.58,1.69a6.44,6.44,0,0,1-.65-2.89,6.85,6.85,0,0,1,6.77-7c4,0,5.87,2.49,5.87,6,0,6.47-6.27,9.16-10.6,14.48a6.34,6.34,0,0,1,1,0H70.7c2.69,0,4.28-.65,5.18-1.54l2.34,2.89a5,5,0,0,1-3.93,1.89c-2.24,0-4.58-.95-6.32-.95-.6,0-2,.3-2,1l-2.84-1.49c4.38-7.61,11.5-11.6,11.5-16.82,0-1.49-.85-2.54-2.09-2.54C71,238.25,70,239.64,70,241.53Z"/><path class="cls-2" d="M80.3,250.69c0-7.47,3.63-15.33,9.21-15.33,4.13,0,5.57,3.73,5.57,8.31,0,8.16-3.88,15.33-9.06,15.33C81.9,259,80.3,255.32,80.3,250.69Zm10.4-8.86c0-2.44-.6-3.48-1.64-3.48-2.24,0-4.33,8.21-4.33,13.94,0,2.69.5,3.73,1.54,3.73C88,256,90.71,248.85,90.71,241.83Z"/><path class="cls-2" d="M96.68,258.56,97,256h2.89a136,136,0,0,1,2.94-14.68,27.77,27.77,0,0,1-3.48,3.78L98,242.28a46.26,46.26,0,0,0,7.22-6.57l2.54.8c-.15,1-1.74,8.26-3.48,19.51h3l-.35,2.54Z"/><path class="cls-2" d="M109.77,263c1.54-8.66,4.93-18.37,9.11-24.19a24.81,24.81,0,0,1-3.28.2c-.85,0-1.79,0-2.79-.15,0,.4.05.75.05,1.1,0,.85-.1,1.59-.15,2.29l-3.53-.15a53.89,53.89,0,0,0,.35-6.32,48.06,48.06,0,0,0,7.37.55,26,26,0,0,0,5.57-.5l.1,3.38c-4,5.53-6.77,13.24-8.06,23.79Z"/><path class="cls-2" d="M122.81,256.52c0-1.79,1.29-3.93,3.48-3.93a2.29,2.29,0,0,1,2.34,2.59c0,1.79-1.29,3.88-3.48,3.88A2.3,2.3,0,0,1,122.81,256.52Z"/><path class="cls-2" d="M134.61,248.7a3.1,3.1,0,0,1,.55-.75,54.19,54.19,0,0,0,2.24-12.34,28.28,28.28,0,0,0,4.68.45,18.68,18.68,0,0,0,5.28-.65l.35,4.08a15.87,15.87,0,0,1-5,.7,19,19,0,0,1-2.84-.2c-.45,2.29-.75,4.38-1.19,6.17A6.29,6.29,0,0,1,140,246c4.28,0,6.27,3.23,6.27,7.27,0,5.18-2.94,11-8.76,11-4,0-6-2.69-6-5.67a8,8,0,0,1,3.08-6.12l2.64,2.94a5.62,5.62,0,0,0-1.74,3.63,2,2,0,0,0,2,2.24c2.69,0,4.43-4.93,4.43-8.51,0-2.89-1.4-4.18-3-4.18-1.2,0-1.24.45-1.89,1.24Z"/><path class="cls-2" d="M148.19,256.52c0-1.79,1.29-3.93,3.49-3.93a2.29,2.29,0,0,1,2.34,2.59c0,1.79-1.29,3.88-3.48,3.88A2.3,2.3,0,0,1,148.19,256.52Z"/><path class="cls-2" d="M158.2,258.56l.35-2.54h2.89a135.72,135.72,0,0,1,2.94-14.68,27.77,27.77,0,0,1-3.48,3.78l-1.39-2.84a46.27,46.27,0,0,0,7.22-6.57l2.54.8c-.15,1-1.74,8.26-3.49,19.51h3l-.35,2.54Z"/><path class="cls-2" d="M177.41,247.41a15.32,15.32,0,0,1,2.24.3,10.12,10.12,0,0,0,2.09-6c0-2-.8-3.63-2.64-3.63-1.49,0-2.84,1.39-2.84,3.53a6.67,6.67,0,0,0,.4,2.09L173.18,245a7.44,7.44,0,0,1-.6-3,6.36,6.36,0,0,1,6.67-6.67c4.48,0,6.47,3.09,6.47,6.52a9.78,9.78,0,0,1-3.24,7.27,7.37,7.37,0,0,1,2.34,5.62c0,4.53-3.24,9.41-8.76,9.41a5.62,5.62,0,0,1-5.87-5.92,7.43,7.43,0,0,1,2.69-5.67l2.79,2.79a4.77,4.77,0,0,0-1.69,3.48,2.18,2.18,0,0,0,2.39,2.34c2.59,0,4.23-3.83,4.23-7.17a7.23,7.23,0,0,0-.75-3.38,7.6,7.6,0,0,1-2.44.4,3.25,3.25,0,0,1-.7-.05Z"/><path class="cls-2" d="M205,258.56l.35-2.54h2.89a135.83,135.83,0,0,1,2.94-14.68,27.82,27.82,0,0,1-3.49,3.78l-1.39-2.84a46.3,46.3,0,0,0,7.22-6.57l2.54.8c-.15,1-1.74,8.26-3.48,19.51h3l-.35,2.54Z"/><path class="cls-2" d="M222.21,241.53a6.06,6.06,0,0,0,.35,2L219,245.27a6.44,6.44,0,0,1-.65-2.89,6.85,6.85,0,0,1,6.77-7c4,0,5.87,2.49,5.87,6,0,6.47-6.27,9.16-10.6,14.48a6.33,6.33,0,0,1,1,0H223c2.69,0,4.28-.65,5.18-1.54l2.34,2.89a5,5,0,0,1-3.93,1.89c-2.24,0-4.58-.95-6.32-.95-.6,0-2,.3-2,1l-2.84-1.49c4.38-7.61,11.5-11.6,11.5-16.82,0-1.49-.85-2.54-2.09-2.54C223.25,238.25,222.21,239.64,222.21,241.53Z"/><path class="cls-2" d="M234.6,244.94l-.24,1.61c.78-1.19,1.67-1.91,2.63-1.91,1.67,0,2.39,1.76,2.39,4.06a16,16,0,0,1-2.84,8.84c2.6-.6,4-3.19,5.11-6.12.18,0,.84.24.84.42-1.37,3.61-3.2,7-6.87,7a3.19,3.19,0,0,1-3-1.7l-1.73,10.33h-2v-.3a30.07,30.07,0,0,1,1.22-7.38c.93-5.61,2.09-12.84,2.27-14.87ZM229,266.32c0,.18-.06.36-.06.42S229,266.53,229,266.32Zm.12-.75a1.84,1.84,0,0,0-.06.36A2.28,2.28,0,0,1,229.16,265.57Zm4-11.68a3.49,3.49,0,0,0,0,.57c0,1,.24,1.85,1,1.85,1.37,0,2.63-4.9,2.63-7.64,0-1.1-.18-1.88-.66-1.88-.9,0-1.82,1.61-2.57,4.57Z"/><path class="cls-2" d="M240.15,258.56a23.05,23.05,0,0,1,1.11-5c.6-3.37,1.1-6.39,1.46-8.66h2.57l-.39,2.24c.9-1.52,2-2.57,3.22-2.57s1.64.93,1.64,2.06a7.07,7.07,0,0,1-.06.75c1-1.73,2.33-2.81,3.73-2.81,1,0,1.73.69,1.73,2.12,0,2.78-1.94,6.33-1.94,8.78,0,.87.33,1,.6,1,.78,0,1.76-1.67,3.08-5.11.18,0,.84.24.84.42-1.31,3.4-2.66,6.87-5.11,6.87-1,0-2-.84-2-2.66,0-3.22,1.94-6.54,1.94-8.69,0-.33-.15-.6-.48-.6-.75,0-2.09,1.43-3.1,5.82-.45,2.42-1,4.87-1.22,6H245c.72-3.28,2.09-9.67,2.09-11,0-.48-.15-.63-.39-.63-1,0-2.21,2.33-3,6.6l-1,5Z"/></g></g></svg>